<?xml version="1.0" encoding="utf-8"?>
<!-- Generator: Adobe Illustrator 26.3.1, SVG Export Plug-In . SVG Version: 6.00 Build 0)  -->
<svg version="1.1" id="Layer_1" xmlns="http://www.w3.org/2000/svg" xmlns:xlink="http://www.w3.org/1999/xlink" x="0px" y="0px"
	 viewBox="0 0 50 50" style="enable-background:new 0 0 50 50;" xml:space="preserve">
<style type="text/css">
	.st0{fill:#FFFFFF;}
</style>
<g>
	<g>
		<path class="st0" d="M25,16.8c4.5,0,9,0,13.5,0c0.3,0,0.3,0,0.3,0.3c0,6.6,0,13.1,0,19.7c0,1.5-1,2.8-2.5,3.2
			c-0.3,0.1-0.6,0.1-0.9,0.1c-0.6,0-1.3,0-1.9,0c-0.2,0-0.3,0.1-0.3,0.3c0,2.2,0,4.4,0,6.5c0,1.5-1.1,2.8-2.7,3
			c-1.9,0.3-3.5-1.2-3.5-3.1c0-2.2,0-4.3,0-6.5c0-0.3-0.1-0.3-0.3-0.3c-1.2,0-2.4,0-3.5,0c-0.2,0-0.3,0.1-0.3,0.3c0,2.2,0,4.3,0,6.5
			c0,1.7-1.2,3-2.8,3.1c-1.6,0.2-3.1-1-3.3-2.6c0-0.2,0-0.5,0-0.7c0-2.1,0-4.2,0-6.3c0-0.4,0-0.3-0.4-0.3c-0.7,0-1.5,0-2.2,0
			c-1.6-0.2-2.9-1.6-2.9-3.3c0-6.6,0-13.2,0-19.8c0-0.3,0.1-0.3,0.3-0.3C16,16.8,20.5,16.8,25,16.8z"/>
	</g>
	<g>
		<path class="st0" d="M25,15.7c-4.5,0-8.9,0-13.4,0c-0.4,0-0.4,0-0.3-0.4c0.1-2.7,1-5.2,2.8-7.3c1.1-1.4,2.4-2.4,3.9-3.3
			c0.3-0.2,0.3-0.2,0.1-0.5c-0.6-1.1-1.3-2.3-1.9-3.4c0-0.1-0.1-0.1-0.1-0.2c-0.1-0.2,0-0.4,0.2-0.5c0.2-0.1,0.4-0.1,0.6,0.1
			c0.1,0.1,0.1,0.2,0.1,0.2c0.7,1.2,1.3,2.4,2,3.5c0.1,0.2,0.2,0.3,0.4,0.2c2-0.9,4.1-1.2,6.3-1.1c1.8,0.1,3.5,0.4,5.2,1.1
			C30.9,4.2,31,4.2,31.1,4c0.6-1.2,1.3-2.4,2-3.5c0-0.1,0.1-0.1,0.1-0.2c0.2-0.3,0.4-0.3,0.6-0.2c0.2,0.1,0.3,0.4,0.2,0.6
			c-0.2,0.3-0.3,0.6-0.5,0.9c-0.5,0.9-1,1.8-1.5,2.8c-0.1,0.2-0.1,0.3,0.1,0.4c2.2,1.2,4,2.9,5.2,5.1c1,1.7,1.5,3.6,1.5,5.5
			c0,0.2-0.1,0.3-0.3,0.3C34,15.7,29.5,15.7,25,15.7z M18.7,8.3c-0.6,0-1.2,0.5-1.2,1.1c0,0.6,0.5,1.2,1.1,1.2
			c0.6,0,1.1-0.5,1.1-1.1C19.8,8.9,19.3,8.3,18.7,8.3z M32.5,9.5c0-0.6-0.5-1.1-1.1-1.1c-0.6,0-1.2,0.5-1.1,1.2
			c0,0.6,0.5,1.1,1.1,1.1C32,10.6,32.5,10.1,32.5,9.5z"/>
	</g>
	<g>
		<path class="st0" d="M10.1,25.8c0,2.1,0,4.2,0,6.3c0,1.4-0.8,2.6-2.1,3c-2,0.7-4.1-0.8-4.1-3c0-4.3,0-8.5,0-12.8
			c0-1.7,1.3-3,3-3.1c1.5-0.1,3,1.1,3.2,2.7c0,0.2,0,0.4,0,0.6C10.1,21.6,10.1,23.7,10.1,25.8z"/>
	</g>
	<g>
		<path class="st0" d="M46.2,25.8c0,2.1,0,4.2,0,6.3c0,1.5-1,2.8-2.4,3.1c-2,0.4-3.8-1-3.8-3.1c0-4.3,0-8.5,0-12.8
			c0-1.7,1.3-3,3-3.1c1.5-0.1,2.9,1,3.2,2.5c0.1,0.3,0.1,0.6,0.1,0.9C46.2,21.6,46.2,23.7,46.2,25.8z"/>
	</g>
</g>
</svg>
