<?xml version="1.0" encoding="utf-8"?>
<!-- Generator: Adobe Illustrator 26.3.1, SVG Export Plug-In . SVG Version: 6.00 Build 0)  -->
<svg version="1.1" id="Layer_1" xmlns="http://www.w3.org/2000/svg" xmlns:xlink="http://www.w3.org/1999/xlink" x="0px" y="0px"
	 viewBox="0 0 120 120" style="enable-background:new 0 0 120 120;" xml:space="preserve">
<style type="text/css">
	.st0{display:none;}
	.st1{display:inline;}
	.st2{fill:#FFFFFF;}
	.st3{fill:#7CB342;}
</style>
<g class="st0">
	<g class="st1">
		<path class="st2" d="M26.7,86.9c1.8,0,3.3-1.5,3.3-3.4c0-1.9-1.5-3.4-3.3-3.4c-11,0-20-9.1-20-20.2s9-20.2,20-20.2h0
			c2,0,3.6-1.6,3.7-3.6c0.2-7.9,3.3-15.2,8.9-20.7C44.8,9.8,52.2,6.8,60,6.8H60c7.8,0,15.1,3,20.7,8.6c5.5,5.5,8.7,12.9,8.9,20.7
			c0,2,1.7,3.6,3.7,3.6h0c11,0,20,9.1,20,20.2s-9,20.2-20,20.2c-1.8,0-3.3,1.5-3.3,3.4c0,1.9,1.5,3.4,3.3,3.4
			c14.7,0,26.7-12.1,26.7-27c0-13.9-10.5-25.4-23.9-26.8c-0.8-8.6-4.6-16.5-10.7-22.6C78.6,3.7,69.6,0,60,0H60
			c-9.6,0-18.6,3.7-25.4,10.5c-6.1,6.1-9.9,14-10.7,22.6C10.5,34.5,0,46,0,59.9C0,74.8,12,86.9,26.7,86.9z"/>
	</g>
	<g class="st1">
		<path class="st2" d="M60.7,21.4c-6.6,0-11.9,5.4-11.9,12c0,5.5,3.6,10.1,8.5,11.5v50.1c-2.8,1.2-4.8,4.1-4.8,7.4
			c0,4.5,3.6,8.1,8,8.1s8-3.6,8-8.1c0-3.2-1.8-6-4.5-7.3V45c4.9-1.5,8.5-6.1,8.5-11.5C72.5,26.8,67.2,21.4,60.7,21.4z M60.7,38.7
			c-2.9,0-5.2-2.4-5.2-5.3s2.3-5.3,5.2-5.3c2.9,0,5.2,2.4,5.2,5.3S63.5,38.7,60.7,38.7z M38.5,42.6c-4.4,0-8,3.6-8,8.1
			c0,3.5,2.2,6.5,5.3,7.6V100c0,2.6-2.1,4.6-4.6,4.6h-5c-1.4-5-6-8.6-11.4-8.6c-6.6,0-11.9,5.4-11.9,12c0,6.6,5.3,12,11.9,12
			c5.4,0,10-3.6,11.4-8.6h5c6.2,0,11.3-5.1,11.3-11.4V57.8c2.4-1.4,4.1-4,4.1-7.1C46.5,46.2,42.9,42.6,38.5,42.6z M14.7,113.2
			c-2.9,0-5.2-2.4-5.2-5.3c0-2.9,2.3-5.3,5.2-5.3s5.2,2.4,5.2,5.3C19.9,110.9,17.6,113.2,14.7,113.2z M105.6,96
			c-5.4,0-10,3.6-11.4,8.6h-5c-2.5,0-4.6-2.1-4.6-4.6V58.2c2.9-1.2,4.9-4.1,4.9-7.5c0-4.5-3.6-8.1-8-8.1s-8,3.6-8,8.1
			c0,3.2,1.8,6,4.5,7.3v42c0,6.3,5.1,11.4,11.3,11.4h5c1.4,5,6,8.6,11.4,8.6c6.6,0,11.9-5.4,11.9-12C117.5,101.4,112.2,96,105.6,96z
			 M105.6,113.2c-2.9,0-5.2-2.4-5.2-5.3c0-2.9,2.3-5.3,5.2-5.3c2.9,0,5.2,2.4,5.2,5.3C110.8,110.9,108.5,113.2,105.6,113.2z"/>
	</g>
</g>
<g>
	<g transform="scale(5.12,5.12)">
		<path class="st3" d="M7.7,0C7.7,0,7.6,0,7.7,0c-0.2,0-0.3,0.2-0.4,0.3c-0.1,0.1,0,0.3,0.1,0.4l1,1.5C6.7,3.1,5.4,4.7,5.2,6.5
			c0,0,0,0,0,0c0,0,0,0,0,0c0,0,0,0,0,0c0,0,0,0,0,0c0,0,0,0,0,0.1v0.7C4.9,7.1,4.6,7,4.2,7c-1,0-1.9,0.8-1.9,1.9v5.6
			c0,1,0.8,1.9,1.9,1.9c0.3,0,0.7-0.1,0.9-0.3v1.2c0,0.8,0.6,1.4,1.4,1.4H7v2.8c0,1,0.8,1.9,1.9,1.9s1.9-0.8,1.9-1.9v-2.8h1.9v2.8
			c0,1,0.8,1.9,1.9,1.9s1.9-0.8,1.9-1.9v-2.8h0.5c0.8,0,1.4-0.6,1.4-1.4v-1.2c0.3,0.2,0.6,0.3,0.9,0.3c1,0,1.9-0.8,1.9-1.9V8.9
			c0-1-0.8-1.9-1.9-1.9c-0.3,0-0.7,0.1-0.9,0.3V6.7c0,0,0-0.1,0-0.1c0,0,0,0,0,0s0,0,0,0c-0.3-1.8-1.5-3.4-3.2-4.3l1-1.5
			c0.1-0.2,0.1-0.4,0-0.5C16,0.1,15.8,0,15.6,0c-0.1,0-0.2,0.1-0.3,0.2l-1.1,1.6c-0.8-0.3-1.6-0.4-2.5-0.4S10,1.6,9.2,1.8L8.1,0.2
			C8,0.1,7.9,0,7.7,0z M11.7,2.4c0.9,0,1.7,0.2,2.4,0.5c0,0,0,0,0,0c1.5,0.6,2.5,1.8,2.9,3.2H6.3c0.4-1.4,1.4-2.6,2.9-3.2
			c0,0,0.1,0,0.1,0C10,2.5,10.8,2.4,11.7,2.4z M9.1,3.8c-0.4,0-0.7,0.3-0.7,0.7c0,0.4,0.3,0.7,0.7,0.7c0.4,0,0.7-0.3,0.7-0.7
			C9.8,4.1,9.5,3.8,9.1,3.8z M14.3,3.8c-0.4,0-0.7,0.3-0.7,0.7c0,0.4,0.3,0.7,0.7,0.7c0.4,0,0.7-0.3,0.7-0.7
			C15,4.1,14.7,3.8,14.3,3.8z M6.1,7h11.2v10.3c0,0.3-0.2,0.5-0.5,0.5h-3.7c-0.1,0-0.1,0-0.2,0H7.6c-0.1,0-0.1,0-0.2,0H6.6
			c-0.3,0-0.5-0.2-0.5-0.5V7z M4.2,8c0.5,0,0.9,0.4,0.9,0.9v5.6c0,0.5-0.4,0.9-0.9,0.9s-0.9-0.4-0.9-0.9V8.9C3.3,8.4,3.7,8,4.2,8z
			 M19.2,8c0.5,0,0.9,0.4,0.9,0.9v5.6c0,0.5-0.4,0.9-0.9,0.9s-0.9-0.4-0.9-0.9V8.9C18.3,8.4,18.7,8,19.2,8z M8,18.8h1.9v2.8
			c0,0.5-0.4,0.9-0.9,0.9c-0.5,0-0.9-0.4-0.9-0.9V18.8z M13.6,18.8h1.9v2.8c0,0.5-0.4,0.9-0.9,0.9s-0.9-0.4-0.9-0.9V18.8z"/>
	</g>
</g>
</svg>
