<?xml version="1.0" encoding="utf-8"?>
<!-- Generator: Adobe Illustrator 26.3.1, SVG Export Plug-In . SVG Version: 6.00 Build 0)  -->
<svg version="1.1" id="Layer_1" xmlns="http://www.w3.org/2000/svg" xmlns:xlink="http://www.w3.org/1999/xlink" x="0px" y="0px"
	 viewBox="0 0 50 50" style="enable-background:new 0 0 50 50;" xml:space="preserve">
<style type="text/css">
	.st0{fill:#FFFFFF;}
</style>
<g>
	<g>
		<path class="st0" d="M45.6,37.1c-2.3,3.5-4.2,7-6.7,10.1c-2.3,2.9-4.8,3.4-8.3,1.9c-3.4-1.5-6.7-1.5-10.1,0.1
			c-2.5,1.2-5,1.2-7.1-1C6.5,41.1,3.1,32.6,4.9,22.5c1.3-7.2,8.8-12.9,16.9-9.1c2.6,1.2,4.9,0.6,7.3-0.3c5.5-2.1,10.5-1,14,3
			c0.2,0.2,0.3,0.5,0.5,0.7C35.3,23.7,37.7,32.9,45.6,37.1z"/>
	</g>
	<g>
		<path class="st0" d="M34.4,0c1.2,5.9-5.5,12.4-9.6,11.1C24.2,5.8,28.4,0.8,34.4,0z"/>
	</g>
</g>
</svg>
