<?xml version="1.0" encoding="utf-8"?>
<!-- Generator: Adobe Illustrator 26.3.1, SVG Export Plug-In . SVG Version: 6.00 Build 0)  -->
<svg version="1.1" id="Layer_1" xmlns="http://www.w3.org/2000/svg" xmlns:xlink="http://www.w3.org/1999/xlink" x="0px" y="0px"
	 viewBox="0 0 120 120" style="enable-background:new 0 0 120 120;" xml:space="preserve">
<style type="text/css">
	.st0{fill:#FFFFFF;}
</style>
<g>
	<path class="st0" d="M81.6,0c-7.1,0.5-14.7,4.7-19.4,10.4c-4.1,5-7.6,12.4-6.2,20c-1.2-0.4-2.2-0.4-3.5-0.9C48.9,28.3,45,27,40,27
		c-9.8,0-19.9,5.8-26.2,15.6c-9.2,14.2-7.4,39.2,6.6,60.5c2.5,3.7,5.4,7.8,8.9,11.1c3.6,3.3,7.9,5.7,12.9,5.8c4.3,0,7.3-1.4,10-2.6
		c2.7-1.2,5.2-2.2,9.9-2.3c0,0,0,0,0.1,0c4.7,0,7.1,1,9.8,2.2s5.6,2.7,9.9,2.7c5.1,0,9.5-2.9,13.1-6.3c3.6-3.5,6.6-7.7,9.1-11.5
		c3.5-5.4,4.9-8.3,7.7-14.3c0.3-0.6,0.3-1.3,0-2c-0.3-0.6-0.8-1.1-1.4-1.4c-8.9-3.4-14-11.2-14.7-19.5s2.8-16.9,11.6-21.7
		c0.7-0.4,1.1-1,1.3-1.7c0.1-0.7,0-1.5-0.5-2.1C101.7,31.6,92.7,27,84,27c-5.6,0-9.7,1.3-13,2.6c-0.6,0.2-1,0.2-1.5,0.4
		c3.4-1.8,6.4-4.3,8.7-7.2c4.1-5.3,7.3-12.8,6.1-20.6C84,0.8,82.9-0.1,81.6,0z M78.9,5.9c-0.2,5-1.9,10-4.8,13.7
		c-3,3.9-8.1,6.5-13,7.3c0.1-4.9,2-9.9,4.9-13.4C69.2,9.8,74.2,7.1,78.9,5.9z M40,32c4,0,7.3,1,10.7,2.3c3.4,1.2,7.1,2.7,11.3,2.7
		c4.2,0,7.5-1.4,10.7-2.7S79.2,32,84,32c6.3,0,13,3.3,18.4,8.9c-8.5,6-12.5,15.4-11.7,24.5c0.8,9.2,6.4,17.9,15.5,22.5
		c-2,4.3-3.3,7.1-6.2,11.6c-2.4,3.6-5.2,7.6-8.4,10.6c-3.1,3-6.4,4.9-9.8,4.9c-3.2,0-5-0.9-7.8-2.2c-2.8-1.3-6.4-2.7-11.9-2.7
		c-5.5,0-9.1,1.4-12,2.7c-2.8,1.2-4.7,2.2-7.9,2.2c-3.4,0-6.6-1.7-9.6-4.5s-5.7-6.5-8.1-10.2c-13.1-20-14.2-43.5-6.6-55.1
		C23.4,36.8,32.2,32,40,32z"/>
</g>
</svg>
