<?xml version="1.0" encoding="utf-8"?>
<!-- Generator: Adobe Illustrator 26.3.1, SVG Export Plug-In . SVG Version: 6.00 Build 0)  -->
<svg version="1.1" id="Layer_1" xmlns="http://www.w3.org/2000/svg" xmlns:xlink="http://www.w3.org/1999/xlink" x="0px" y="0px"
	 viewBox="0 0 1024 1024" style="enable-background:new 0 0 1024 1024;" xml:space="preserve">
<style type="text/css">
	.st0{fill:#FFFFFF;}
</style>
<path class="st0" d="M715.7,834.6l175.2-175.2c17-16.4,44-15.9,60.3,1.1c15.9,16.5,15.9,42.7,0,59.2L740,930.9
	c-16.7,16.7-43.7,16.6-60.3,0c-5.5-5.5-9.4-12.4-11.3-20c-0.5-0.5-1-1.1-1.5-1.6L557.3,778.5c-15.5-17.7-13.7-44.7,4-60.2
	c17.7-15.5,44.7-13.7,60.2,4c0.4,0.5,0.8,0.9,1.2,1.4L715.7,834.6L715.7,834.6z M274.1,298.7c0-23.6,19.5-42.7,42.5-42.7h341.8
	c23.5,0,42.5,18.9,42.5,42.7c0,23.6-19.5,42.7-42.5,42.7H316.6c-23.4,0-42.5-19-42.5-42.5C274.1,298.8,274.1,298.7,274.1,298.7z
	 M274.1,512c0-23.6,19.3-42.7,42.5-42.7h256.3c23.5,0,42.5,18.9,42.5,42.7c0,23.6-19.3,42.7-42.5,42.7H316.7
	c-23.5,0-42.5-19-42.5-42.5C274.1,512.1,274.1,512.1,274.1,512z M274.1,725.3c0-23.6,19.2-42.7,43-42.7h148.6
	c23.8,0,43,18.9,43,42.7c0,23.6-19.2,42.7-43,42.7H317.2c-23.6,0.2-42.9-18.8-43.1-42.4C274.1,725.5,274.1,725.4,274.1,725.3z
	 M550.6,938.7h-362c-23.4,0.1-42.4-18.8-42.5-42.2c0,0,0-0.1,0-0.1V127.6c0-23.3,19-42.2,42.5-42.2h597.8
	c23.4,0,42.5,19.1,42.5,42.6v298.9c0.1,23.6,19.3,42.6,42.9,42.5c23.4-0.1,42.4-19.1,42.5-42.5V127.9C914.1,57.3,856.9,0.1,786.3,0
	H188.6C118.1,0,60.8,57.1,60.8,127.6c0,0,0,0,0,0v768.8c0,70.5,57.2,127.6,127.7,127.6c0,0,0.1,0,0.1,0h361.9
	c23.6-0.1,42.6-19.3,42.5-42.9C592.9,957.7,574,938.8,550.6,938.7L550.6,938.7z"/>
</svg>
