<?xml version="1.0" encoding="utf-8"?>
<!-- Generator: Adobe Illustrator 26.3.1, SVG Export Plug-In . SVG Version: 6.00 Build 0)  -->
<svg version="1.1"
	 id="Layer_1" text-rendering="geometricPrecision" image-rendering="optimizeQuality" shape-rendering="geometricPrecision"
	 xmlns="http://www.w3.org/2000/svg" xmlns:xlink="http://www.w3.org/1999/xlink" x="0px" y="0px" viewBox="0 0 512 512"
	 style="enable-background:new 0 0 512 512;" xml:space="preserve">
<style type="text/css">
	.st0{fill:#FFFFFF;}
</style>
<g>
	<path class="st0" d="M437,75C390.7,28.7,326.7,0,256,0C185.3,0,121.3,28.7,75,75C28.7,121.3,0,185.3,0,256
		c0,70.7,28.7,134.7,75,181c46.3,46.3,110.3,75,181,75s134.7-28.7,181-75c46.3-46.3,75-110.3,75-181S483.3,121.3,437,75z
		 M419.3,419.3c-41.8,41.8-99.5,67.6-163.3,67.6s-121.5-25.8-163.3-67.6C50.9,377.5,25.1,319.8,25.1,256
		c0-63.8,25.8-121.5,67.6-163.3c41.8-41.8,99.5-67.6,163.3-67.6c63.8,0,121.5,25.8,163.3,67.6c41.8,41.8,67.6,99.5,67.6,163.3
		S461.1,377.5,419.3,419.3z"/>
	<path class="st0" d="M234.5,206.1c-2,2.6-2.9,5.7-3,9c-0.1,2.8,0.5,5.2,1.7,7.4c1.2,2.1,3.1,4,5.5,5.6c2.4,1.6,5.3,3,8.7,4.2
		c0.9,0.3,1.9,0.7,2.9,1v-35.2c-2.6,0.4-4.9,1-7,1.8C239.4,201.4,236.5,203.5,234.5,206.1z"/>
	<path class="st0" d="M273.1,279.4c-2.3-1-5-1.9-7.9-2.8v37.1c2.8-0.4,5.3-1,7.6-1.9c4.3-1.6,7.5-3.9,9.8-6.8
		c2.3-2.9,3.5-6.3,3.5-10c0-3.5-1.2-6.5-3.3-9S277.5,281.2,273.1,279.4z"/>
	<path class="st0" d="M256,59.5c-108.5,0-196.5,88-196.5,196.5s88,196.5,196.5,196.5c108.5,0,196.5-88,196.5-196.5
		S364.5,59.5,256,59.5z M322.9,325.3c-5.9,8.4-14.3,14.9-25.3,19.4c-9.2,3.8-20,5.9-32.4,6.5v21.1h-14.9v-21.1
		c-12.4-0.6-23.5-2.9-33.1-6.8c-11.6-4.7-20.6-11.7-27-21.2c-6.4-9.5-9.7-21.5-9.9-36.1h43.1c0.3,6,2,11,4.8,15
		c2.9,4,6.8,7,11.8,9.1c3.2,1.3,6.6,2.2,10.4,2.7v-41l-13.3-3.1c-16.1-3.7-28.8-9.7-38.1-17.9c-9.3-8.3-13.9-19.5-13.8-33.6
		c0-11.5,3.1-21.6,9.3-30.3c6.2-8.6,14.8-15.4,25.9-20.2c9-3.9,19-6.3,30.1-7v-21h14.9v20.9c11.4,0.7,21.5,3.1,30.3,7.1
		c10.7,4.9,18.9,11.7,24.8,20.5c5.9,8.8,8.9,18.9,9,30.5h-43.1v0c-0.6-6.7-3.3-11.9-8.1-15.6c-3.3-2.6-7.6-4.3-12.9-5.1v38.8
		l9.6,2.2c9.2,2,17.3,4.6,24.4,8c7,3.3,13,7.3,17.8,11.9c4.8,4.6,8.5,9.9,11,15.9c2.5,6,3.8,12.8,3.8,20.2
		C331.7,306.8,328.7,316.9,322.9,325.3z"/>
</g>
</svg>
