<?xml version="1.0" encoding="utf-8"?>
<!-- Generator: Adobe Illustrator 26.3.1, SVG Export Plug-In . SVG Version: 6.00 Build 0)  -->
<svg version="1.1" id="Layer_1" xmlns="http://www.w3.org/2000/svg" xmlns:xlink="http://www.w3.org/1999/xlink" x="0px" y="0px"
	 viewBox="0 0 120 120" style="enable-background:new 0 0 120 120;" xml:space="preserve">
<style type="text/css">
	.st0{fill:#3DB7D4;}
</style>
<g>
	<g transform="scale(5.12,5.12)">
		<path class="st0" d="M13.8,0c-0.1,0-0.3,0.1-0.4,0.2L2.5,11.1c-0.2,0.2-0.2,0.5,0,0.7L5.6,15c0.2,0.2,0.5,0.2,0.7,0L20.4,0.9
			c0.1-0.1,0.2-0.4,0.1-0.6C20.5,0.1,20.3,0,20.1,0L13.8,0z M14,1h4.8L6,13.8l-2.4-2.4L14,1z M14.3,9.9c-0.1,0-0.3,0.1-0.4,0.2
			l-6.3,6.2c-0.2,0.2-0.2,0.5,0,0.7l3.1,3.1l3.1,3.1c0.1,0.1,0.2,0.2,0.4,0.2h6.3c0.2,0,0.4-0.1,0.5-0.3c0.1-0.2,0-0.4-0.1-0.6
			l-5.9-5.9l5.9-5.9c0.1-0.1,0.2-0.4,0.1-0.6C21,10,20.8,9.9,20.6,9.9L14.3,9.9z M14.5,10.9h4.8l-8.1,8.1l-2.4-2.4L14.5,10.9z
			 M14.3,17.4l5,5h-4.8l-2.6-2.6L14.3,17.4z"/>
	</g>
</g>
</svg>
