<?xml version="1.0" encoding="utf-8"?>
<!-- Generator: Adobe Illustrator 26.3.1, SVG Export Plug-In . SVG Version: 6.00 Build 0)  -->
<svg version="1.1" id="Layer_1" xmlns="http://www.w3.org/2000/svg" xmlns:xlink="http://www.w3.org/1999/xlink" x="0px" y="0px"
	 viewBox="0 0 50 50" style="enable-background:new 0 0 50 50;" xml:space="preserve">
<style type="text/css">
	.st0{fill:#FFFFFF;}
</style>
<g>
	<path class="st0" d="M23.9,21.3c1.4-1.4,2.8-2.8,4.2-4.3c1.1-1.1,2.3-2.3,3.4-3.4c1.4-1.4,2.8-2.9,4.3-4.3C37.2,7.9,38.6,6.4,40,5
		c1.6-1.6,3.2-3.2,4.8-4.8c0.1-0.1,0.1-0.1,0.2-0.2c0,0,0,0,0-0.1c0,0-0.1,0-0.1,0c-5,0-9.9,0-14.9,0c-0.1,0-0.2,0-0.3,0.1
		c-0.9,0.9-1.8,1.8-2.7,2.7c-1.4,1.4-2.8,2.9-4.3,4.3c-1.1,1.2-2.3,2.3-3.4,3.5c-1.4,1.4-2.8,2.8-4.2,4.3c-1.4,1.4-2.9,2.9-4.3,4.3
		c-1.9,1.9-3.7,3.8-5.6,5.6C5,25,5,25,5.1,25.1C6.5,26.6,8,28,9.4,29.5c1,1,2,2,3.1,3.1c0.1,0.1,0.2,0.1,0.3,0
		c0.9-0.9,1.8-1.8,2.7-2.7c1.4-1.4,2.8-2.8,4.2-4.3C21.1,24.1,22.5,22.7,23.9,21.3z"/>
	<path class="st0" d="M43.8,48.8c-1.5-1.5-3.1-3.1-4.6-4.6c-1.4-1.4-2.7-2.7-4.1-4.1c-1.2-1.2-2.3-2.3-3.5-3.5l0,0c0,0,0,0,0-0.1
		c0.1,0,0.1-0.1,0.2-0.1c1-1,2-2,2.9-3c1.5-1.5,2.9-3,4.4-4.4c1.2-1.3,2.5-2.5,3.7-3.8c0.7-0.7,1.3-1.3,2-2c0,0,0.1-0.1,0.1-0.1
		c-0.1,0-0.1,0-0.2,0c-5,0-9.9,0-14.9,0c-0.1,0-0.2,0-0.3,0.1c-1.6,1.6-3.3,3.3-4.9,4.9c-0.2,0.2-0.5,0.5-0.7,0.7
		c0,0-0.1,0.1-0.1,0.1c-1.6,1.6-3.2,3.3-4.8,4.9c-0.9,0.9-1.7,1.7-2.6,2.6c-0.1,0.1-0.1,0.1,0,0.2c0.1,0.1,0.3,0.3,0.4,0.4
		c1.9,1.9,3.8,3.8,5.7,5.8c0.5,0.5,0.9,0.9,1.4,1.4c0,0,0,0,0.1,0.1c1.9,1.9,3.7,3.7,5.6,5.6c0.1,0.1,0.1,0.1,0.2,0.1
		c5,0,10,0,14.9,0c0,0,0.1,0,0.2-0.1C44.6,49.6,44.2,49.2,43.8,48.8z"/>
</g>
</svg>
