<?xml version="1.0" encoding="utf-8"?>
<!-- Generator: Adobe Illustrator 26.3.1, SVG Export Plug-In . SVG Version: 6.00 Build 0)  -->
<svg version="1.1" id="Layer_1" xmlns="http://www.w3.org/2000/svg" xmlns:xlink="http://www.w3.org/1999/xlink" x="0px" y="0px"
	 viewBox="0 0 120 120" style="enable-background:new 0 0 120 120;" xml:space="preserve">
<style type="text/css">
	.st0{fill:#FFFFFF;}
	.st1{fill:#849B87;}
	.st2{fill:#8B5447;}
	.st3{fill:#80B3CF;}
	.st4{fill:#F7B16A;}
</style>
<g>
	<g>
		<path class="st0" d="M109.3,116.2c-8,2.2-16.3-7.5-25.9-21.9H36.6c-9.6,14.3-17.9,23.9-25.9,21.7C0.2,113.2-3.2,91.5,3.3,67.4
			s20.6-40.1,30.8-36.2c5.7,2.2,8.5,3.4,13.6,7.2h24.8c5-3.8,7.9-5,13.5-7.1c10.2-3.9,24.3,12.2,30.7,36.2S119.8,113.4,109.3,116.2z
			 M112.5,66.9C106,45,93.7,31,85.7,35.1c-4.4,2.2-7.8,3.2-10.3,7H44.5l0-0.3c-2.4-3.7-5.9-4.6-10.2-6.8c-8-4.1-20.4,9.9-26.9,31.9
			s-5,42.2,3.3,45.4c6.7,2.5,14.4-7.1,23.5-21.1h51.4c9.2,14.1,16.8,23.8,23.5,21.3C117.5,109.2,119,88.9,112.5,66.9z"/>
	</g>
	<g>
		<path class="st0" d="M31.3,56.6h0.4c2,0,3.6,1.6,3.6,3.6l0,0v16c0,2-1.6,3.6-3.6,3.6l0,0h-0.4c-2,0-3.6-1.6-3.6-3.6l0,0v-16
			C27.7,58.2,29.3,56.6,31.3,56.6L31.3,56.6L31.3,56.6z M23.7,64.2h16c2,0,3.6,1.6,3.6,3.6l0,0v0.4c0,2-1.6,3.6-3.6,3.6l0,0h-16
			c-2,0-3.6-1.6-3.6-3.6l0,0v-0.4C20,65.8,21.7,64.2,23.7,64.2L23.7,64.2z"/>
	</g>
	<path class="st1" d="M91.4,57.8c0,1.5-1.2,2.7-2.7,2.7c-1.5,0-2.7-1.2-2.7-2.7c0-1.5,1.2-2.7,2.7-2.7c0,0,0,0,0,0
		C90.2,55.1,91.4,56.3,91.4,57.8C91.4,57.8,91.4,57.8,91.4,57.8z"/>
	<path class="st2" d="M86.5,61.5c0,1.5-1.2,2.7-2.7,2.7s-2.7-1.2-2.7-2.7c0-1.5,1.2-2.7,2.7-2.7c0,0,0,0,0,0
		C85.3,58.9,86.4,60.1,86.5,61.5z"/>
	<path class="st3" d="M96.4,61.5c0,1.5-1.2,2.7-2.7,2.7S91,63,91,61.6c0-1.5,1.2-2.7,2.7-2.7c0,0,0,0,0,0
		C95.2,58.9,96.4,60.1,96.4,61.5z"/>
	<path class="st4" d="M91.4,65.2c0,1.5-1.2,2.7-2.7,2.7s-2.7-1.2-2.7-2.7c0-1.5,1.2-2.7,2.7-2.7c0,0,0,0,0,0
		C90.2,62.5,91.4,63.7,91.4,65.2z"/>
	<g>
		<path class="st0" d="M49.9,47.5H56c0.6,0,1.1,0.5,1.1,1.1c0,0.6-0.5,1.1-1.1,1.1h-6.2c-0.6,0-1.1-0.5-1.1-1.1
			C48.8,48,49.3,47.5,49.9,47.5z M63.3,47.5h6.2c0.6,0,1.1,0.5,1.1,1.1c0,0.6-0.5,1.1-1.1,1.1h-6.2c-0.6,0-1.1-0.5-1.1-1.1
			C62.2,48,62.7,47.5,63.3,47.5z"/>
	</g>
	<g>
		<path class="st0" d="M66.2,78.5c0,3.1,2.5,5.6,5.6,5.6c3.1,0,5.6-2.5,5.6-5.6c0,0,0,0,0,0c0-3.1-2.5-5.6-5.6-5.6
			C68.7,72.9,66.2,75.4,66.2,78.5C66.2,78.5,66.2,78.5,66.2,78.5z"/>
	</g>
</g>
</svg>
