<?xml version="1.0" encoding="utf-8"?>
<!-- Generator: Adobe Illustrator 26.3.1, SVG Export Plug-In . SVG Version: 6.00 Build 0)  -->
<svg version="1.1" id="Layer_1" xmlns="http://www.w3.org/2000/svg" xmlns:xlink="http://www.w3.org/1999/xlink" x="0px" y="0px"
	 viewBox="0 0 50 50" style="enable-background:new 0 0 50 50;" xml:space="preserve">
<style type="text/css">
	.st0{fill:#FFFFFF;}
</style>
<g>
	<path class="st0" d="M28.9,30.5c-2.6,0-5.2,0-7.7,0c-0.2,0.6-0.4,1.1-0.6,1.6c-1.1,2.1-3.5,3.2-5.8,2.6c-0.2-0.1-0.3,0-0.4,0.2
		c-0.5,1-1,2-1.6,2.9c-1.5,2.4-4.4,3.6-7.2,3c-2.8-0.6-4.9-2.8-5.4-5.6c-0.1-0.8-0.1-1.7,0-2.5c0.2-1.8,0.3-3.6,0.5-5.4
		c0.2-2.3,0.3-4.6,0.5-7c0.1-0.9,0.1-1.7,0.2-2.6c0.8-4.2,3.2-7,7.3-8.1c3.7-1,7-0.1,9.8,2.5c0.1,0.1,0.2,0.2,0.4,0.2
		c4.1,0,8.2,0,12.4,0c0.2,0,0.3,0,0.4-0.1c2-1.9,4.5-2.9,7.3-2.9c3.4,0.1,6.1,1.5,8.1,4.3c1.2,1.6,1.7,3.4,1.9,5.4
		c0.2,3.1,0.5,6.2,0.7,9.3c0.1,1.8,0.3,3.5,0.5,5.3c0.2,3-1.6,5.9-4.4,7c-3.3,1.3-7-0.1-8.7-3.2c-0.4-0.8-0.9-1.6-1.3-2.4
		c-0.1-0.1-0.1-0.2-0.3-0.1c-2.9,0.8-5.8-1-6.4-4C28.9,30.6,28.9,30.5,28.9,30.5z M8.5,20.4c0,0.1,0,0.2,0,0.3c0,0.8,0,1.5,0,2.3
		c0,0.5,0.2,0.8,0.8,0.8c0.7,0,1.4,0,2,0c0.5,0,0.7-0.3,0.7-0.7c0-0.8,0-1.6,0-2.3c0-0.1,0-0.2,0-0.3c0.1,0,0.2,0,0.3,0
		c0.8,0,1.5,0,2.3,0c0.5,0,0.8-0.2,0.8-0.8c0-0.7,0-1.3,0-2c0-0.5-0.2-0.8-0.7-0.8c-0.8,0-1.5,0-2.3,0c-0.1,0-0.2,0-0.3,0
		c0-0.9,0-1.7,0-2.6c0-0.5-0.3-0.7-0.7-0.7c-0.7,0-1.3,0-2,0c-0.5,0-0.7,0.2-0.8,0.8c0,0.8,0,1.5,0,2.3c0,0.1,0,0.2,0,0.3
		c-0.1,0-0.2,0-0.3,0c-0.8,0-1.6,0-2.4,0c-0.4,0-0.6,0.3-0.6,0.6c0,0.7,0,1.5,0,2.2c0,0.3,0.2,0.6,0.6,0.6c0.1,0,0.2,0,0.3,0
		C6.8,20.4,7.7,20.4,8.5,20.4z M16,25.9c-2.1,0-3.8,1.7-3.8,3.8c0,2.1,1.7,3.8,3.8,3.8c2.1,0,3.8-1.7,3.8-3.8
		C19.8,27.6,18.1,25.9,16,25.9z M30.2,29.7c0,2.1,1.7,3.8,3.8,3.8c2.1,0,3.8-1.7,3.8-3.8c0-2.1-1.7-3.8-3.8-3.8
		C31.9,25.9,30.2,27.6,30.2,29.7z M38.1,15.2c0,0.9,0.8,1.7,1.7,1.7c0.9,0,1.7-0.8,1.7-1.7c0-0.9-0.8-1.7-1.7-1.7
		C38.9,13.6,38.1,14.3,38.1,15.2z M44.8,18.7c0-0.9-0.7-1.7-1.6-1.7c-0.9,0-1.7,0.7-1.7,1.6c0,0.9,0.7,1.7,1.6,1.7
		C44,20.3,44.8,19.6,44.8,18.7z M39.8,23.7c0.9,0,1.7-0.7,1.7-1.6c0-0.9-0.7-1.7-1.6-1.7c-0.9,0-1.7,0.7-1.7,1.6
		C38.1,22.9,38.9,23.7,39.8,23.7z M38.1,18.6c0-0.9-0.7-1.7-1.7-1.7c-0.9,0-1.7,0.7-1.7,1.7c0,0.9,0.8,1.7,1.7,1.7
		C37.3,20.2,38.1,19.5,38.1,18.6z M24.1,24.1c-1.4,0-2.8,0-4.2,0c0,0.4,0,0.8,0,1.3c1.4,0,2.8,0,4.2,0
		C24.1,24.9,24.1,24.5,24.1,24.1z M30.1,25.4c0-0.4,0-0.7,0-1c0-0.2-0.1-0.2-0.2-0.2c-1.2,0-2.5,0-3.7,0c-0.1,0-0.1,0-0.2,0
		c0,0.4,0,0.8,0,1.3C27.3,25.4,28.7,25.4,30.1,25.4z"/>
</g>
</svg>
