<?xml version="1.0" encoding="utf-8"?>
<!-- Generator: Adobe Illustrator 26.3.1, SVG Export Plug-In . SVG Version: 6.00 Build 0)  -->
<svg version="1.1" id="Layer_1" xmlns="http://www.w3.org/2000/svg" xmlns:xlink="http://www.w3.org/1999/xlink" x="0px" y="0px"
	 viewBox="0 0 1024 1024" style="enable-background:new 0 0 1024 1024;" xml:space="preserve">
<style type="text/css">
	.st0{fill:#FFFFFF;}
</style>
<path class="st0" d="M613.9,198.1l0.5-2l-26.1-7.7c-15.4-4.6-31.7-7.7-48.1-9.2h-2.6c-9.7-1-17.4-1.5-25.1-1.5h-1
	c-7.7,0-15.4,0.5-25.1,1.5h-2.6c-16.4,1.5-32.3,4.6-48.1,9.2l-25.1,7.2l0.5,2c-44.5,18.4-83.5,48.1-112.1,86.5
	c-35.3,47.1-54.3,102.9-54.3,161.8c0,39.9,6.7,76.3,18.9,108.5c17.4,43.5,43,72.7,65.5,96.8l4.6,4.6c8.7,8.7,15.9,16.4,21,23
	c6.7,8.2,8.2,13.3,8.7,15.9c4.6,25.1,5.1,57.3,5.1,60.9v2c0,38.9,31.7,70.7,70.7,70.7h145.9c38.9,0,70.7-31.7,70.7-70.7v-2
	c0-0.5,0-34.3,5.1-60.9c0.5-2.6,2-5.6,4.1-9.2c4.6-7.7,14.3-17.9,25.1-29.2l0.5-0.5c17.9-18.9,39.9-42,57.9-75.3
	c21-38.4,31.2-84,31.2-134.7c0-58.9-18.9-114.7-54.3-161.8C696.3,246.3,657.9,216.6,613.9,198.1L613.9,198.1z M421.4,684.5
	c-2-9.7-5.6-19.5-11.8-29.7c-8.7-13.3-18.9-24.1-29.7-35.8l-3.1-3.1c-15.4-16.4-34.8-36.4-49.2-63.5c-16.4-30.7-24.1-65-24.1-106.5
	c0-46.1,14.8-89.6,42-126c26.6-35.3,65-62,107-74.2l5.1-1.5c11.3-3.1,22-5.1,32.3-6.1h2c7.2-0.5,13.3-1,18.4-1h3.1
	c5.1,0,10.8,0.5,17.4,1l3.1,0.5c10.2,1,21,3.1,31.7,6.1l5.6,1.5c42,12.8,80.4,38.9,107,74.2c27.6,36.4,42,79.9,42,126
	c0,32.3-4.6,59.9-14.3,85.5l-0.5,1.5c-13.3,33.8-33.8,56.8-53.8,77.8l-5.6,5.6c-8.2,8.7-16.4,16.9-23.6,26.1s-16.9,23-20.5,41.5
	c-3.6,20.5-5.6,45.1-6.1,71.7v2c0,6.7-5.1,11.8-11.8,11.8c0,0-152.1-1-154.1-3.6c-2-2-3.6-5.1-3.6-8.2v-2
	C427.5,729.6,425.5,705,421.4,684.5L421.4,684.5z M584.2,851.5H439.8c-16.4,0-29.7,13.3-29.7,30.2c0,16.4,13.3,29.7,29.7,29.7h144.9
	c16.4,0,29.7-13.3,29.7-29.7C614.4,864.8,601.1,851.5,584.2,851.5L584.2,851.5z M584.2,919.6H439.8c-16.4,0-29.7,13.3-29.7,29.7
	s13.3,30.2,29.7,30.2h144.9c16.4,0,29.7-13.3,29.7-30.2C614.4,933.4,601.1,919.6,584.2,919.6L584.2,919.6z M576.5,991.7v-2.6h-129
	v5.1c0,16.9,25.1,29.7,47.1,29.7h35.3c22,0,47.1-12.8,47.1-29.7v-1.5C576.5,992.3,576.5,991.7,576.5,991.7L576.5,991.7z M512,130.6
	c16.9,0,30.2-13.3,30.2-30.2V30.2C542.2,13.3,528.9,0,512,0s-30.2,13.3-30.2,30.2v70.1C481.8,116.7,495.1,130.6,512,130.6z
	 M889.3,192c0-8.2-3.1-15.9-8.7-21.5s-13.3-8.7-21.5-8.7s-15.9,3.1-21.5,8.7l-49.2,49.7c-5.6,5.6-8.7,13.3-8.7,21.5
	s3.1,15.9,8.7,21.5s13.3,8.7,21.5,8.7s15.9-3.1,21.5-8.7l49.7-49.7C886.3,207.9,889.3,200.2,889.3,192L889.3,192z M235.5,220.2
	l-49.7-49.7c-5.6-5.6-13.3-8.7-21.5-8.7s-15.9,3.1-21.5,8.7s-8.7,13.3-8.7,21.5s3.1,15.9,8.7,21.5l49.7,49.7
	c5.6,5.6,13.3,8.7,21.5,8.7s15.9-3.1,21.5-8.7s8.7-13.3,8.7-21.5S241.2,225.8,235.5,220.2z M948.7,451.6h-70.1
	c-16.9,0-30.2,13.3-30.2,30.2s13.3,30.2,30.2,30.2h70.1c16.9,0,30.2-13.3,30.2-30.2C978.9,465.4,965.6,451.6,948.7,451.6
	L948.7,451.6z M144.9,451.6H75.3c-16.9,0-30.2,13.3-30.2,30.2S58.4,512,75.3,512h70.1c16.9,0,30.2-13.3,30.2-30.2
	C175.1,465.4,161.8,451.6,144.9,451.6L144.9,451.6z"/>
</svg>
