<?xml version="1.0" encoding="utf-8"?>
<!-- Generator: Adobe Illustrator 26.3.1, SVG Export Plug-In . SVG Version: 6.00 Build 0)  -->
<svg version="1.1" id="Layer_1" xmlns="http://www.w3.org/2000/svg" xmlns:xlink="http://www.w3.org/1999/xlink" x="0px" y="0px"
	 viewBox="0 0 50 50" style="enable-background:new 0 0 50 50;" xml:space="preserve">
<style type="text/css">
	.st0{fill:#FFFFFF;}
</style>
<g>
	<path class="st0" d="M22.8,32.1l-6.4-3.7v-7.4l6.4-3.7l6.4,3.7v7.4L22.8,32.1z M19.7,26.4l3.1,1.8l3.1-1.8v-3.6L22.8,21l-3.1,1.8
		V26.4z"/>
	<g>
		<rect x="6" y="17.4" class="st0" width="3.3" height="16.1"/>
	</g>
	<polygon class="st0" points="44,17.2 32.8,17.2 32.8,20.5 36.7,20.5 36.7,33.4 40.1,33.4 40.1,20.5 44,20.5 	"/>
	<g>
		<polygon class="st0" points="30.3,15.3 22.8,11.6 15.3,15.3 13.9,12.3 22.8,7.9 31.8,12.3 		"/>
	</g>
	<g>
		<polygon class="st0" points="12.2,8.9 10.8,5.9 22.8,0 34.8,5.9 33.4,8.9 22.8,3.7 		"/>
	</g>
	<g>
		<polygon class="st0" points="22.8,42.1 13.9,37.7 15.3,34.7 22.8,38.4 30.3,34.7 31.8,37.7 		"/>
	</g>
	<g>
		<polygon class="st0" points="22.8,50 10.8,44.1 12.2,41.1 22.8,46.3 33.4,41.1 34.8,44.1 		"/>
	</g>
</g>
</svg>
