<?xml version="1.0" encoding="utf-8"?>
<!-- Generator: Adobe Illustrator 26.3.1, SVG Export Plug-In . SVG Version: 6.00 Build 0)  -->
<svg version="1.1" id="Layer_1" xmlns="http://www.w3.org/2000/svg" xmlns:xlink="http://www.w3.org/1999/xlink" x="0px" y="0px"
	 viewBox="0 0 50 50" style="enable-background:new 0 0 50 50;" xml:space="preserve">
<style type="text/css">
	.st0{fill:#C80404;}
	.st1{fill:#FFFFFF;}
</style>
<g>
	<path class="st0" d="M49,1v48H1V1H49 M50,0H0v50h50V0L50,0z"/>
</g>
<g>
	<g>
		<path class="st1" d="M19.5,29.5c0.3,0,0.5-0.2,0.5-0.6c0-0.3-0.2-0.6-0.5-0.6c-1.8,0-3.3-1.5-3.3-3.4s1.5-3.4,3.3-3.4l0,0
			c0.3,0,0.6-0.3,0.6-0.6c0-1.3,0.5-2.5,1.5-3.5c0.9-0.9,2.1-1.4,3.4-1.4l0,0c1.3,0,2.5,0.5,3.4,1.4c0.9,0.9,1.5,2.1,1.5,3.4
			c0,0.3,0.3,0.6,0.6,0.6l0,0c1.8,0,3.3,1.5,3.3,3.4s-1.5,3.4-3.3,3.4c-0.3,0-0.6,0.2-0.6,0.6s0.2,0.6,0.6,0.6c2.5,0,4.5-2,4.5-4.5
			c0-2.3-1.8-4.2-4-4.5c-0.1-1.4-0.8-2.8-1.8-3.8C28.1,15.6,26.6,15,25,15l0,0c-1.6,0-3.1,0.6-4.2,1.8c-1,1-1.6,2.3-1.8,3.8
			c-2.2,0.2-4,2.1-4,4.5C15,27.5,17,29.5,19.5,29.5z"/>
	</g>
	<g>
		<path class="st1" d="M25.1,18.6c-1.1,0-2,0.9-2,2c0,0.9,0.6,1.7,1.4,1.9v8.4c-0.5,0.2-0.8,0.7-0.8,1.2c0,0.8,0.6,1.4,1.3,1.4
			s1.3-0.6,1.3-1.4c0-0.5-0.3-1-0.8-1.2v-8.4c0.8-0.2,1.4-1,1.4-1.9C27.1,19.5,26.2,18.6,25.1,18.6z M25.1,21.5
			c-0.5,0-0.9-0.4-0.9-0.9c0-0.5,0.4-0.9,0.9-0.9s0.9,0.4,0.9,0.9S25.6,21.5,25.1,21.5z M21.4,22.1c-0.7,0-1.3,0.6-1.3,1.3
			c0,0.6,0.4,1.1,0.9,1.3v7c0,0.4-0.4,0.8-0.8,0.8h-0.8c-0.2-0.8-1-1.4-1.9-1.4c-1.1,0-2,0.9-2,2c0,1.1,0.9,2,2,2
			c0.9,0,1.7-0.6,1.9-1.4h0.8c1,0,1.9-0.8,1.9-1.9v-7c0.4-0.2,0.7-0.7,0.7-1.2C22.8,22.7,22.1,22.1,21.4,22.1z M17.5,33.9
			c-0.5,0-0.9-0.4-0.9-0.9s0.4-0.9,0.9-0.9c0.5,0,0.9,0.4,0.9,0.9C18.3,33.5,17.9,33.9,17.5,33.9z M32.6,31c-0.9,0-1.7,0.6-1.9,1.4
			h-0.8c-0.4,0-0.8-0.4-0.8-0.8v-7c0.5-0.2,0.8-0.7,0.8-1.2c0-0.8-0.6-1.4-1.3-1.4s-1.3,0.6-1.3,1.3c0,0.5,0.3,1,0.8,1.2v7
			c0,1.1,0.9,1.9,1.9,1.9h0.8c0.2,0.8,1,1.4,1.9,1.4c1.1,0,2-0.9,2-2C34.6,31.9,33.7,31,32.6,31z M32.6,33.9c-0.5,0-0.9-0.4-0.9-0.9
			s0.4-0.9,0.9-0.9c0.5,0,0.9,0.4,0.9,0.9C33.5,33.5,33.1,33.9,32.6,33.9z"/>
	</g>
</g>
</svg>
