<?xml version="1.0" encoding="utf-8"?>
<!-- Generator: Adobe Illustrator 26.3.1, SVG Export Plug-In . SVG Version: 6.00 Build 0)  -->
<svg version="1.1" id="Layer_1" xmlns="http://www.w3.org/2000/svg" xmlns:xlink="http://www.w3.org/1999/xlink" x="0px" y="0px"
	 viewBox="0 0 100 75" style="enable-background:new 0 0 100 75;" xml:space="preserve">
<style type="text/css">
	.st0{fill:#FFF;}
	.st1{fill:#c80404;}
	.st2{fill:#c80404;}
	.st3{fill:#c80404;}
	.st4{fill:#c80404;}
</style>
<g>
	<path class="st0" d="M97.5,0h-95C1.1,0,0,1.1,0,2.5v70.1C0,73.9,1.1,75,2.5,75h95c1.4,0,2.5-1.1,2.5-2.5V2.5C100,1.2,98.9,0,97.5,0
		z M95,5v13.4H5V5H95z M5,70.2V23.3h89.9v46.8L5,70.2L5,70.2z"/>
	<rect x="9.6" y="9.6" class="st1" width="6.7" height="4.9"/>
	<rect x="19.7" y="9.6" class="st2" width="6.7" height="4.9"/>
	<polygon class="st3" points="38.6,54.4 28.3,44.1 38.6,33.9 41.7,36.9 34.4,44.1 41.7,51.5 	"/>
	<polygon class="st4" points="61.4,54.4 58.3,51.5 65.6,44.1 58.3,36.9 61.4,33.9 71.7,44.1 	"/>
	<polygon class="st0" points="46.2,56.3 50.3,31.3 53.2,31.7 49.1,56.8 	"/>
</g>
</svg>
