<?xml version="1.0" encoding="utf-8"?>
<!-- Generator: Adobe Illustrator 26.3.1, SVG Export Plug-In . SVG Version: 6.00 Build 0)  -->
<svg version="1.1" id="Layer_1" xmlns="http://www.w3.org/2000/svg" xmlns:xlink="http://www.w3.org/1999/xlink" x="0px" y="0px"
	 viewBox="0 0 50 50" style="enable-background:new 0 0 50 50;" xml:space="preserve">
<style type="text/css">
	.st0{fill:#FFFFFF;}
</style>
<g>
	<path class="st0" d="M25,35.8C11,35.8,0,31,0,25s11-10.9,25-10.9S50,18.9,50,25S39,35.8,25,35.8z M25,16.3
		c-13.7,0-22.8,4.5-22.8,8.7s9.1,8.7,22.8,8.7s22.8-4.5,22.8-8.7S38.7,16.3,25,16.3z"/>
	<path class="st0" d="M15.3,47.4c-1.1,0-2-0.2-2.8-0.8c-5.3-3-3.9-14.9,3-27.1l0,0C18.7,13.8,22.8,9.1,26.7,6
		c4.2-3.3,8-4.2,10.6-2.7C40,4.8,41,8.6,40.3,14c-0.7,5-2.8,10.9-6.1,16.5C31.1,36.2,27,41,23.1,44C20.3,46.2,17.6,47.4,15.3,47.4z
		 M34.7,4.7c-1.7,0-4,1-6.5,2.9c-3.7,2.9-7.5,7.5-10.7,12.9l0,0c-6.8,11.8-7.5,22.1-3.9,24.1c1.8,1.1,4.9,0.1,8.2-2.5
		c3.7-2.9,7.5-7.5,10.7-12.9s5.2-11,5.9-15.7c0.5-4.3-0.1-7.4-2-8.5C35.9,5,35.3,4.7,34.7,4.7z"/>
	<path class="st0" d="M34.8,47.4c-5.4,0-13.2-6.6-19.1-17c-7.1-12.2-8.5-24-3.2-27.1l0,0c5.3-3,14.9,4,22,16.2
		c3.2,5.7,5.4,11.5,6.1,16.5c0.8,5.3-0.3,9-3,10.7C36.6,47.2,35.8,47.4,34.8,47.4z M13.6,5.2c-3.6,2.1-2.9,12.3,3.9,24.1
		s15.3,17.5,18.9,15.4c1.8-1.1,2.5-4.1,2-8.5c-0.7-4.7-2.7-10.3-5.9-15.7C25.7,8.8,17.2,3.1,13.6,5.2L13.6,5.2z"/>
	<circle class="st0" cx="25" cy="25" r="4.3"/>
</g>
</svg>
