<?xml version="1.0" encoding="utf-8"?>
<!-- Generator: Adobe Illustrator 26.3.1, SVG Export Plug-In . SVG Version: 6.00 Build 0)  -->
<svg version="1.1" id="Layer_1" xmlns="http://www.w3.org/2000/svg" xmlns:xlink="http://www.w3.org/1999/xlink" x="0px" y="0px"
	 viewBox="0 0 120 120" style="enable-background:new 0 0 120 120;" xml:space="preserve">
<style type="text/css">
	.st0{fill:#80DEEA;}
</style>
<g>
	<path class="st0" d="M60,86C26.3,86,0,74.5,0,59.9s26.3-26.1,60-26.1s60,11.5,60,26.1S93.7,86,60,86z M60,39.1
		c-32.9,0-54.8,10.7-54.8,20.9S27.1,80.8,60,80.8s54.8-10.7,54.8-20.9S92.9,39.1,60,39.1z"/>
	<path class="st0" d="M36.8,113.7c-2.6,0-4.7-0.5-6.8-1.8c-12.8-7.3-9.4-35.7,7.3-65l0,0c7.8-13.6,17.5-25,26.9-32.3
		C74.3,6.7,83.5,4.4,89.7,8c6.5,3.7,8.9,12.8,7.3,25.6c-1.6,12-6.8,26.1-14.6,39.7s-17.5,25-26.9,32.3
		C48.8,110.8,42.3,113.7,36.8,113.7z M83.2,11.4c-4.2,0-9.7,2.3-15.7,7c-8.9,7-18,18-25.6,31l0,0c-16.4,28.4-18,53-9.4,57.9
		c4.4,2.6,11.7,0.3,19.8-6c8.9-7,18-18,25.6-31c7.6-13,12.5-26.3,14.1-37.6c1.3-10.4-0.3-17.7-4.7-20.3
		C86.1,11.9,84.8,11.4,83.2,11.4z"/>
	<path class="st0" d="M83.5,113.7c-13,0-31.8-15.9-45.9-40.7C20.6,43.8,17.2,15.3,30,8l0,0c12.8-7.3,35.7,9.7,52.7,38.9
		c7.8,13.6,13,27.7,14.6,39.7c1.8,12.8-0.8,21.7-7.3,25.6C87.9,113.2,85.8,113.7,83.5,113.7z M32.6,12.5c-8.6,5-7,29.5,9.4,57.9
		s36.8,42,45.4,37c4.4-2.6,6-9.9,4.7-20.3C90.5,75.8,85.6,62.5,78,49.5C61.6,21.1,41.2,7.5,32.6,12.5L32.6,12.5z"/>
	<circle class="st0" cx="60" cy="59.9" r="10.4"/>
</g>
</svg>
