<?xml version="1.0" encoding="utf-8"?>
<!-- Generator: Adobe Illustrator 26.3.1, SVG Export Plug-In . SVG Version: 6.00 Build 0)  -->
<svg version="1.1" id="Layer_1" xmlns="http://www.w3.org/2000/svg" xmlns:xlink="http://www.w3.org/1999/xlink" x="0px" y="0px"
	 viewBox="0 0 100 79.1" style="enable-background:new 0 0 100 79.1;" xml:space="preserve">
<style type="text/css">
	.st0{fill:#c80404;}
	.st1{fill:#FFF;}
	.st2{fill:#c80404;}
	.st3{fill:#c80404;}
	.st4{fill:#c80404;}
</style>
<path class="st0" d="M92.5,17.2l-7.5-4.3V4.3L92.5,0l7.5,4.3v8.6L92.5,17.2z M88.9,10.7l3.6,2.1l3.6-2.1V6.5l-3.6-2.1l-3.6,2.1V10.7
	z"/>
<rect x="66.3" y="16.5" transform="matrix(0.8899 -0.4563 0.4563 0.8899 -0.3249 35.5186)" class="st1" width="14.1" height="3.8"/>
<path class="st2" d="M0,12.9l0-8.6L7.5,0l7.5,4.3v8.6l-7.5,4.3L0,12.9z M11.1,6.5L7.5,4.4L3.8,6.5v4.2l3.6,2.1l3.6-2.1V6.5z"/>
<rect x="24.7" y="11.4" transform="matrix(0.4564 -0.8898 0.8898 0.4564 -1.9405 33.6878)" class="st1" width="3.8" height="14.1"/>
<path class="st3" d="M100,66.2v8.6l-7.5,4.3l-7.5-4.3v-8.6l7.5-4.3L100,66.2z M88.9,72.6l3.6,2.1l3.6-2.1v-4.2l-3.6-2.1l-3.6,2.1
	V72.6z"/>
<rect x="71.5" y="53.7" transform="matrix(0.4564 -0.8898 0.8898 0.4564 -14.1258 98.3093)" class="st1" width="3.8" height="14.1"/>
<path class="st4" d="M7.5,61.9l7.5,4.3v8.6l-7.5,4.3L0,74.8l0-8.6L7.5,61.9z M11.1,68.4l-3.6-2.1l-3.6,2.1v4.2l3.6,2.1l3.6-2.1V68.4
	z"/>
<rect x="19.5" y="58.8" transform="matrix(0.8898 -0.4564 0.4564 0.8898 -24.7789 18.8338)" class="st1" width="14.1" height="3.8"/>
<path class="st1" d="M54.1,20.7h-7.5c-1.1,0-1.9-0.9-1.9-1.9V9.6c0-1.1,0.9-1.9,1.9-1.9h7.5c1.1,0,1.9,0.9,1.9,1.9v9.1
	C56.1,19.8,55.2,20.7,54.1,20.7z M48.6,16.8h3.7v-5.3h-3.7V16.8z"/>
<path class="st1" d="M64,53H37.8c-1.3,0-2.3-1-2.3-2.3V37.1c0-0.5,0.2-1,0.5-1.4l7.7-10.1c0.4-0.6,1.1-0.9,1.8-0.9h9.9
	c0.7,0,1.3,0.3,1.7,0.8l8.6,10.1c0.4,0.4,0.6,0.9,0.6,1.5v13.6C66.3,51.9,65.2,53,64,53z M40.1,48.4h21.6V37.9l-7.4-8.6h-7.7
	l-6.5,8.6V48.4z"/>
</svg>
