<?xml version="1.0" encoding="utf-8"?>
<!-- Generator: Adobe Illustrator 26.3.1, SVG Export Plug-In . SVG Version: 6.00 Build 0)  -->
<svg version="1.1" id="Layer_1" xmlns="http://www.w3.org/2000/svg" xmlns:xlink="http://www.w3.org/1999/xlink" x="0px" y="0px"
	 viewBox="0 0 123 122.4" style="enable-background:new 0 0 123 122.4;" xml:space="preserve">
<style type="text/css">
	.st0{fill-rule:evenodd;clip-rule:evenodd;fill:#FFFFFF;}
	.st1{fill:#C80404;stroke:#C80404;}
</style>
<path class="st0" d="M89.8,87.5L80.2,112l-35.3-0.5l-9.8-24c8.4-15,16.9-33.3,21.3-49.3l4.7,0.5l-0.2,43.1c-1,0.4-1.8,1.1-2.3,2
	c-0.5,0.9-0.7,2-0.5,3.1c0.2,1,0.8,2,1.6,2.6c0.8,0.7,1.9,1,3,0.9c1.1,0,2.1-0.5,2.9-1.2c0.8-0.7,1.3-1.7,1.4-2.8
	c0.1-1.1-0.1-2.1-0.7-3c-0.6-0.9-1.5-1.5-2.5-1.8L63.9,39l5.3-0.2C73.1,54.9,81.5,73.1,89.8,87.5L89.8,87.5z M53.4,0h18.4
	c0.3,0,0.6,0.1,0.9,0.2c0.3,0.1,0.6,0.3,0.8,0.5c0.2,0.2,0.4,0.5,0.5,0.8c0.1,0.3,0.2,0.6,0.2,0.9v6h29.1c0.5-1.4,1.3-2.7,2.4-3.8
	c0.9-0.9,2-1.7,3.2-2.2c1.2-0.5,2.5-0.8,3.8-0.8c1.3,0,2.6,0.3,3.8,0.8c1.2,0.5,2.3,1.2,3.2,2.2c0.9,0.9,1.7,2,2.2,3.2
	c0.5,1.2,0.8,2.5,0.8,3.8s-0.3,2.6-0.8,3.8c-0.5,1.2-1.2,2.3-2.2,3.2c-0.9,0.9-2,1.7-3.2,2.2c-1.2,0.5-2.5,0.8-3.8,0.8
	c-1.3,0-2.6-0.3-3.8-0.8c-1.2-0.5-2.3-1.2-3.2-2.2l-0.2-0.2c-1-1-1.7-2.2-2.2-3.6h-15c4.8,2.8,9.2,6.4,13,10.5
	c7.5,8.3,12.5,18.6,14.3,29.6h4c0.8,0,1.6,0.3,2.1,0.9c0.6,0.6,0.9,1.3,0.9,2.1v13.5c0,0.8-0.3,1.6-0.9,2.1
	c-0.6,0.6-1.3,0.9-2.1,0.9h-13.3c-0.8,0-1.6-0.3-2.1-0.9c-0.6-0.6-0.9-1.3-0.9-2.1V58.2c0-0.8,0.3-1.6,0.9-2.1
	c0.6-0.6,1.3-0.9,2.1-0.9h3.1c-1.8-9.5-6.2-18.3-12.6-25.4c-6-6.7-13.9-11.5-22.6-13.9v5.3c0,0.7-0.3,1.3-0.7,1.7
	c-0.5,0.5-1.1,0.7-1.7,0.7H53.4c-0.6,0-1.3-0.3-1.7-0.7c-0.5-0.5-0.7-1.1-0.7-1.7v-5.3c-8.9,2.5-16.9,7.5-23,14.5
	C21.7,37.4,17.5,46,15.8,55.2h3c0.8,0,1.6,0.3,2.1,0.9s0.9,1.3,0.9,2.1v13.5c0,0.8-0.3,1.6-0.9,2.1s-1.3,0.9-2.1,0.9H5.4
	c-0.8,0-1.6-0.3-2.1-0.9s-0.9-1.3-0.9-2.1V58.2c0-0.8,0.3-1.6,0.9-2.1s1.3-0.9,2.1-0.9h4.1c1.8-10.7,6.6-20.7,13.8-28.9
	c3.9-4.4,8.5-8.2,13.6-11.2H19.4c-0.5,1.4-1.3,2.7-2.4,3.8c-1.9,1.9-4.4,2.9-7.1,2.9c-2.6,0-5.2-1-7.1-2.9c-0.9-0.9-1.7-2-2.2-3.2
	C0.3,14.4,0,13.1,0,11.8S0.3,9.2,0.8,8C1.3,6.8,2,5.7,2.9,4.7c0.9-0.9,2-1.7,3.2-2.2C7.4,2.1,8.7,1.8,10,1.8c1.3,0,2.6,0.3,3.8,0.8
	c1.2,0.5,2.3,1.2,3.2,2.2c1.1,1.1,1.9,2.3,2.4,3.8h31.5v-6c0-0.7,0.2-1.3,0.7-1.8C52.1,0.3,52.7,0,53.4,0z M79.4,122.4H45.1v-6.8
	h34.2L79.4,122.4L79.4,122.4z"/>
<path class="st1" d="M19.7,55.8H4.9c-1.1,0-2,0.9-2,2v14.6c0,1.1,0.9,2,2,2h14.8c1.1,0,2-0.9,2-2V57.8
	C21.7,56.7,20.8,55.8,19.7,55.8z"/>
<path class="st1" d="M120.5,55.5h-14.8c-1.1,0-2,0.9-2,2v14.6c0,1.1,0.9,2,2,2h14.8c1.1,0,2-0.9,2-2V57.5
	C122.5,56.4,121.6,55.5,120.5,55.5z"/>
<path class="st1" d="M71.8,0.5H53.3c-1.1,0-2,0.9-2,2v18.8c0,1.1,0.9,2,2,2h18.5c1.1,0,2-0.9,2-2V2.5C73.8,1.4,72.9,0.5,71.8,0.5z"
	/>
</svg>
