<?xml version="1.0" encoding="utf-8"?>
<!-- Generator: Adobe Illustrator 26.3.1, SVG Export Plug-In . SVG Version: 6.00 Build 0)  -->
<svg version="1.1" id="Layer_1" xmlns="http://www.w3.org/2000/svg" xmlns:xlink="http://www.w3.org/1999/xlink" x="0px" y="0px"
	 viewBox="0 0 1024 1024" style="enable-background:new 0 0 1024 1024;" xml:space="preserve">
<style type="text/css">
	.st0{fill:#FFFFFF;}
</style>
<path class="st0" d="M37.2,951.1c1.8,0,3.6-0.1,5.3-0.4l266-38.5c0,0,0,0,0.1,0c0.4-0.1,0.8-0.1,1.2-0.2c0.2,0,0.5-0.1,0.7-0.1
	c0.2,0,0.4-0.1,0.5-0.1c7-1.5,13.5-5,18.5-10.1l515.8-515.8c43.7-43.7,43.7-114.8,0-158.4L723.7,105.7C680,62,609,62,565.3,105.7
	L49.5,621.5c-0.5,0.5-0.9,0.9-1.4,1.4c0,0,0,0-0.1,0.1c-0.4,0.4-0.8,0.9-1.1,1.3c-0.1,0.1-0.2,0.2-0.3,0.4c-0.3,0.4-0.6,0.7-0.8,1.1
	l-0.4,0.5c-0.2,0.3-0.5,0.6-0.7,1c-0.1,0.2-0.3,0.4-0.4,0.6c-0.2,0.3-0.4,0.6-0.5,0.9c-0.1,0.2-0.3,0.5-0.4,0.8
	c-0.2,0.3-0.3,0.5-0.5,0.8c-0.1,0.3-0.3,0.6-0.4,0.8c-0.1,0.3-0.3,0.5-0.4,0.8c-0.1,0.3-0.3,0.6-0.4,0.9c-0.1,0.2-0.2,0.5-0.3,0.7
	c-0.1,0.3-0.3,0.7-0.4,1.1c-0.1,0.2-0.2,0.4-0.2,0.6c-0.1,0.4-0.3,0.8-0.4,1.2c0,0.2-0.1,0.3-0.2,0.5c-0.1,0.5-0.3,1-0.4,1.5
	l-0.1,0.3c-0.3,1.2-0.6,2.5-0.7,3.8L0.4,908.5c-1.7,11.6,2.2,23.3,10.5,31.6C17.9,947.2,27.3,951.1,37.2,951.1L37.2,951.1z
	 M101.9,726.7l122.5,122.5L81.2,869.9L101.9,726.7z M617.9,158.3c14.7-14.7,38.5-14.7,53.2,0L792.8,280c14.7,14.7,14.7,38.5,0,53.2
	L714.9,411L540.1,236.2L617.9,158.3L617.9,158.3z M487.4,288.8l174.9,174.9L303.2,822.7L128.4,647.9L487.4,288.8L487.4,288.8z
	 M366.4,913.9c0,20.6,16.7,37.2,37.2,37.2h583.2c20.6,0,37.2-16.7,37.2-37.2s-16.7-37.2-37.2-37.2H403.6
	C383.1,876.7,366.4,893.3,366.4,913.9z"/>
</svg>
