<?xml version="1.0" encoding="utf-8"?>
<!-- Generator: Adobe Illustrator 26.3.1, SVG Export Plug-In . SVG Version: 6.00 Build 0)  -->
<svg version="1.1" id="Layer_1" xmlns="http://www.w3.org/2000/svg" xmlns:xlink="http://www.w3.org/1999/xlink" x="0px" y="0px"
	 viewBox="0 0 122.9 122.9" style="enable-background:new 0 0 122.9 122.9;" xml:space="preserve">
<style type="text/css">
	.st0{fill:#FFFFFF;}
</style>
<g>
	<path class="st0" d="M61.4,122.9c-8.5,0-16.3-1.5-23.6-4.5c-7.3-3-13.9-7.5-19.9-13.5C12,98.9,7.5,92.3,4.5,85
		C1.5,77.8,0,69.9,0,61.4s1.5-16.3,4.5-23.6C7.5,30.6,12,24,18,18S30.6,7.5,37.8,4.5C45.1,1.5,53,0,61.4,0S77.8,1.5,85,4.5
		c7.3,3,13.9,7.5,19.9,13.5s10.5,12.6,13.5,19.9c3,7.3,4.5,15.1,4.5,23.6c0,8.4-1.5,16.3-4.5,23.5c-3,7.3-7.5,13.9-13.5,19.9
		c-6,6-12.6,10.5-19.8,13.5C77.8,121.4,69.9,122.9,61.4,122.9L61.4,122.9z M61.4,17.1l6.2,10.7H64v31.1h3.1h11.3v-3.5L89,61.6
		l-10.7,6.2v-3.5h-1.7H66h-7.2V59h0V27.8h-3.5L61.4,17.1L61.4,17.1z M37.3,23.5c1-1.8,3.3-2.4,5.1-1.4c1.8,1,2.4,3.3,1.4,5.1
		c-1,1.8-3.3,2.4-5.1,1.4C36.9,27.5,36.3,25.2,37.3,23.5L37.3,23.5z M21.5,40.6c0-2,1.7-3.7,3.7-3.7s3.7,1.7,3.7,3.7
		s-1.7,3.7-3.7,3.7S21.5,42.7,21.5,40.6L21.5,40.6z M16.4,63.4c-1-1.8-0.4-4,1.4-5.1c1.8-1,4-0.4,5.1,1.4c1,1.8,0.4,4-1.4,5.1
		S17.5,65.1,16.4,63.4L16.4,63.4z M23.4,85.6c-1.8-1-2.4-3.3-1.4-5.1c1-1.8,3.3-2.4,5.1-1.4c1.8,1,2.4,3.3,1.4,5.1
		C27.4,86,25.2,86.6,23.4,85.6L23.4,85.6z M40.5,101.4c-2,0-3.7-1.7-3.7-3.7c0-2.1,1.7-3.7,3.7-3.7s3.7,1.7,3.7,3.7
		S42.6,101.4,40.5,101.4L40.5,101.4z M63.3,106.5c-1.8,1-4,0.4-5.1-1.4c-1-1.8-0.4-4,1.4-5.1c1.8-1,4-0.4,5.1,1.4
		C65.7,103.2,65.1,105.5,63.3,106.5L63.3,106.5z M85.6,99.5c-1,1.8-3.3,2.4-5.1,1.4c-1.8-1-2.4-3.3-1.4-5.1c1-1.8,3.3-2.4,5.1-1.4
		C86,95.5,86.6,97.8,85.6,99.5L85.6,99.5z M101.3,82.4c0,2.1-1.7,3.7-3.7,3.7c-2.1,0-3.7-1.7-3.7-3.7s1.7-3.7,3.7-3.7
		C99.7,78.7,101.3,80.3,101.3,82.4L101.3,82.4z M106.4,59.6c1,1.8,0.4,4-1.4,5.1c-1.8,1-4,0.4-5.1-1.4c-1-1.8-0.4-4,1.4-5.1
		C103.2,57.3,105.4,57.9,106.4,59.6L106.4,59.6z M99.5,37.4c1.8,1,2.4,3.3,1.4,5.1c-1,1.8-3.3,2.4-5.1,1.4c-1.8-1-2.4-3.3-1.4-5.1
		C95.4,37,97.7,36.4,99.5,37.4L99.5,37.4z M82.3,21.6c2.1,0,3.7,1.7,3.7,3.7S84.4,29,82.3,29s-3.7-1.7-3.7-3.7S80.3,21.6,82.3,21.6
		L82.3,21.6z M40.2,112.8c6.5,2.7,13.6,4,21.3,4c7.7,0,14.8-1.3,21.3-4c6.5-2.7,12.5-6.8,17.9-12.2c5.4-5.4,9.5-11.4,12.2-17.9
		c2.7-6.5,4-13.6,4-21.2c0-7.7-1.3-14.8-4-21.3c-2.7-6.5-6.8-12.5-12.2-17.9s-11.4-9.5-17.9-12.2c-6.5-2.7-13.6-4-21.3-4
		s-14.8,1.3-21.3,4c-6.5,2.7-12.5,6.8-17.9,12.2s-9.5,11.4-12.2,17.9c-2.7,6.5-4,13.6-4,21.3s1.3,14.8,4,21.3
		c2.7,6.5,6.8,12.4,12.2,17.9C27.7,106,33.7,110.1,40.2,112.8L40.2,112.8z"/>
</g>
</svg>
