<?xml version="1.0" encoding="utf-8"?>
<!-- Generator: Adobe Illustrator 16.0.0, SVG Export Plug-In . SVG Version: 6.00 Build 0)  -->
<!DOCTYPE svg PUBLIC "-//W3C//DTD SVG 1.1//EN" "http://www.w3.org/Graphics/SVG/1.1/DTD/svg11.dtd">
<svg version="1.1" id="Layer_1" xmlns="http://www.w3.org/2000/svg" xmlns:xlink="http://www.w3.org/1999/xlink" x="0px" y="0px"
	 width="75px" height="78px" viewBox="0 0 75 78" enable-background="new 0 0 75 78" xml:space="preserve">
<path fill="#FFFFFF" d="M39.146,24.276c-0.004-5.17-0.007-8.874-0.004-9.424c0.003-0.699-0.038-1.235-0.132-1.74
	c-0.787-4.227-3.291-7.053-7.24-8.172c-4.026-1.142-7.641-0.063-10.451,3.122c-1.746,1.977-2.563,4.355-2.429,7.107
	c-2.351-0.043-4.413,0.813-6.046,2.43c-2.941,2.913-3.811,6.463-2.589,10.556c-2.072,0.513-3.807,1.673-5.16,3.45
	c-2.941,3.862-3.581,8.167-1.902,12.793c1.312,3.619,3.686,5.914,7.06,6.83c-0.52,1.576-0.651,3.186-0.388,4.795
	c0.53,3.248,2.205,5.67,4.978,7.201c1.212,0.668,2.558,1.019,4.049,0.99c-0.169,3.165,0.942,5.889,3.308,8.104
	c1.907,1.785,4.344,2.707,6.807,2.707c1.69,0,3.392-0.434,4.944-1.321c3.321-1.899,5.112-4.937,5.176-8.776
	C39.179,61.928,39.158,38.359,39.146,24.276 M24.396,61.538c0.641-0.787,1.263-1.59,1.885-2.392
	c0.465-0.602,0.931-1.201,1.404-1.795c0.092-0.117,0.373-0.467,0.31-0.94c-0.062-0.472-0.425-0.738-0.544-0.826
	c-0.427-0.313-0.927-0.688-1.397-1.093c-0.197-0.17-0.497-0.387-0.893-0.387c-0.037,0-0.076,0.002-0.114,0.006
	c-0.509,0.053-0.813,0.451-0.913,0.584c-0.716,0.939-1.445,1.867-2.173,2.797c-0.48,0.611-0.96,1.224-1.436,1.839
	c-0.102,0.132-0.208,0.205-0.375,0.26c-2.208,0.722-4.633-0.524-5.524-2.837c-0.838-2.176-0.58-4.107,0.79-5.904
	c0.481-0.634,0.32-1.182,0.101-1.529c-0.347-0.547-0.674-1.108-0.999-1.668c-0.278-0.48-0.722-0.694-1.273-0.629
	C11.032,47.301,9.318,46.396,8,44.271c-1.843-2.971-1.661-6.999,0.445-9.792c1.164-1.545,2.572-2.264,4.18-2.147
	c1.189,0.091,1.755-0.399,2.279-1.217c0.653-1.019,0.911-1.971,0.05-3.305c-1.502-2.323-0.934-5.599,1.266-7.301
	c1.262-0.976,2.614-1.181,4.133-0.628c0.089,0.032,0.133,0.067,0.181,0.141c0.748,1.163,1.501,2.324,2.262,3.48
	c0.022,0.033,0.043,0.081,0.043,0.281c-0.003,1.804-0.003,3.609-0.001,5.414c0.001,1.048,0.361,1.403,1.423,1.405l0.613-0.002
	c0.388-0.002,0.773-0.003,1.159,0.005c0.367,0.005,0.682-0.098,0.908-0.319c0.227-0.222,0.341-0.53,0.34-0.914
	c-0.007-2.194-0.006-4.39-0.002-6.584c0-0.436-0.176-0.761-0.328-0.996l-0.844-1.305c-0.691-1.071-1.381-2.142-2.095-3.199
	c-0.319-0.471-0.526-1.023-0.635-1.688c-0.449-2.764,1.114-5.438,3.636-6.217c2.272-0.703,4.893,0.135,6.236,1.993
	c1.517,2.098,1.562,4.756,0.102,6.781c-0.388-0.007-0.775-0.006-1.163-0.004c-0.397,0.001-0.793,0.004-1.188-0.005
	c-0.396,0.009-0.73,0.107-0.964,0.343c-0.233,0.234-0.345,0.559-0.334,0.963c0.018,0.631,0.013,1.262,0.002,1.893
	c-0.006,0.378,0.104,0.685,0.327,0.911c0.224,0.226,0.547,0.316,0.911,0.337c1.234-0.009,2.468-0.014,3.703,0.004
	c0.017,0,0.034,0,0.049,0c0.003,4.478,0.002,8.956,0.002,13.435l-1.4,0.001c-1.681,0.002-3.362,0.004-5.044-0.01
	c-0.611-0.002-1.097,0.195-1.547,0.624c-0.76,0.726-1.526,1.446-2.292,2.166c-0.669,0.63-1.338,1.259-2.028,1.913
	c-0.648-0.928-1.299-1.855-1.95-2.781c-0.84-1.197-1.68-2.392-2.513-3.593c-0.162-0.234-0.428-0.552-0.873-0.618
	c-0.489-0.069-0.874,0.229-0.999,0.328c-0.409,0.325-0.878,0.656-1.475,1.042c-0.324,0.209-0.517,0.472-0.576,0.78
	c-0.09,0.468,0.17,0.835,0.268,0.974c0.695,0.981,1.388,1.965,2.08,2.949c0.932,1.328,1.865,2.654,2.807,3.974
	c-0.661,0.587-1.305,1.203-1.929,1.798c-0.371,0.354-0.741,0.708-1.117,1.058c-0.119,0.111-0.435,0.406-0.445,0.866
	c-0.007,0.302,0.116,0.581,0.363,0.834c0.499,0.511,0.987,1.03,1.469,1.556c0.28,0.306,0.577,0.375,0.776,0.381
	c0.455,0.033,0.712-0.26,0.881-0.428c0.995-0.934,1.99-1.869,2.983-2.805l1.377-1.297c1.815-1.707,3.63-3.415,5.436-5.13
	c0.124-0.119,0.199-0.147,0.37-0.147c1.778,0.014,3.557,0.016,5.384,0.006c-0.007,4.599-0.007,9.197-0.007,13.797v2.834
	c-0.245-0.012-0.48-0.002-0.703,0.006c-0.164,0.008-0.33,0.014-0.491,0.011c-0.474-0.011-0.947-0.008-1.423-0.006
	c-0.466,0.003-0.933,0.005-1.399-0.007c-0.426-0.01-0.765,0.111-1.005,0.353c-0.362,0.368-0.345,0.856-0.34,1.017
	c0.022,0.596,0.022,1.178,0,1.729c-0.017,0.42,0.096,0.757,0.335,1c0.363,0.37,0.86,0.361,1.022,0.355
	c0.448-0.008,0.897-0.006,1.345-0.004c0.494,0,0.988,0.004,1.555-0.004c0.001,0,0.029,0.016,0.083,0.094
	c1.101,1.543,1.318,3.535,0.583,5.334c-0.737,1.8-2.295,3.07-4.167,3.4c-3.244,0.573-6.126-1.41-6.699-4.611
	C23.096,64.118,23.424,62.732,24.396,61.538"/>
<line fill="none" stroke="#FFFFFF" stroke-width="5" stroke-linejoin="round" stroke-miterlimit="10" x1="37.282" y1="23.489" x2="48.952" y2="16.124"/>
<line fill="none" stroke="#FFFFFF" stroke-width="5" stroke-linejoin="round" stroke-miterlimit="10" x1="36.497" y1="34.097" x2="58.281" y2="30.025"/>
<line fill="none" stroke="#FFFFFF" stroke-width="5" stroke-linejoin="round" stroke-miterlimit="10" x1="36.342" y1="54.634" x2="48.166" y2="62.613"/>
<line fill="none" stroke="#FFFFFF" stroke-width="5" stroke-linejoin="round" stroke-miterlimit="10" x1="35.939" y1="45.316" x2="58.9" y2="49.609"/>
<path fill="#c80404" d="M51.18,20.614l-7.65-4.417V7.363l7.65-4.416l7.65,4.416v8.834L51.18,20.614z M47.462,13.927l3.718,2.146
	l3.719-2.146V9.634L51.18,7.487l-3.718,2.147V13.927z"/>
<path fill="#c80404" d="M51.18,76.39l-7.65-4.417V63.14l7.65-4.417l7.65,4.417v8.833L51.18,76.39z M47.462,69.703l3.718,2.146
	l3.719-2.146V65.41l-3.719-2.147l-3.718,2.147V69.703z"/>
<path fill="#c80404" d="M64.121,37.633l-7.65-4.417v-8.834l7.65-4.416l7.65,4.416v8.834L64.121,37.633z M60.403,30.946l3.718,2.146
	l3.719-2.146v-4.293l-3.719-2.147l-3.718,2.147V30.946z"/>
<path fill="#c80404" d="M64.121,59.371l-7.65-4.418v-8.832l7.65-4.418l7.65,4.418v8.832L64.121,59.371z M60.403,52.684l3.718,2.146
	l3.719-2.146v-4.293l-3.719-2.146l-3.718,2.146V52.684z"/>
</svg>
