<?xml version="1.0" encoding="UTF-8"?>
<svg width="27px" height="17px" viewBox="0 0 27 17" version="1.1" xmlns="http://www.w3.org/2000/svg" xmlns:xlink="http://www.w3.org/1999/xlink">
    <title>2FBBBABA-62FE-4222-B7D6-AF6040A0CE91</title>
    <g id="Page-1" stroke="#c80404" stroke-width="1" fill="none" fill-rule="evenodd">
        <g id="LL-Sprint-17-locked" transform="translate(-1156.000000, -503.000000)" fill="#FFFFFF" fill-rule="nonzero">
            <g id="Group-30" transform="translate(1156.500000, 503.000000)">
                <g id="Group-14" transform="translate(0.000000, 3.000000)">
                    <polygon id="Path" points="23.8020105 2.80483927 25.1959789 1.40241963 23.8020105 6.09290396e-14 22.3993298 1.40241963"></polygon>
                    <polygon id="Path" points="16.7973193 7.00338749 18.2 8.39709644 19.6026807 7.00338749 18.2 5.60096785"></polygon>
                    <polygon id="Path" points="14.0006702 12.5956447 14.0006702 12.5956447 12.5979895 11.2019357 11.1953088 12.5956447 11.1953088 12.5956447 12.5979895 13.9980643"></polygon>
                    <polygon id="Path" points="20.9966491 2.80483927 19.6026807 4.19854822 20.9966491 5.60096785 22.3993298 4.19854822"></polygon>
                    <polygon id="Path" points="15.4033509 8.39709644 14.0006702 9.79951607 15.4033509 11.2019357 16.7973193 9.79951607"></polygon>
                    <polygon id="Path" points="8.39865965 7.00338749 6.99597894 5.60096785 5.60201053 7.00338749 6.99597894 8.39709644"></polygon>
                    <polygon id="Path" points="2.79664911 4.19854822 4.19932982 5.60096785 5.60201053 4.19854822 4.19932982 2.79612859"></polygon>
                    <polygon id="Path" points="2.79664911 1.40241963 1.40268071 -3.03246317e-13 -6.99285074e-13 1.40241963 1.40268071 2.79612859"></polygon>
                    <polygon id="Path" points="11.1953088 9.79951607 9.80134035 8.39709644 8.39865965 9.79951607 9.80134035 11.2019357"></polygon>
                </g>
                <g id="Group-21" transform="translate(3.502872, 0.000000)" fill-opacity="0.5">
                    <polygon id="Path" points="17.0014361 2.00345662 17.9971278 1.00172831 17.0014361 4.98305101e-13 15.9995213 1.00172831"></polygon>
                    <polygon id="Path" points="11.9980852 5.00241963 13 5.99792603 14.0019148 5.00241963 13 4.00069132"></polygon>
                    <polygon id="Path" points="10.0004787 8.99688904 10.0004787 8.99688904 8.99856391 8.00138265 7.99664911 8.99688904 7.99664911 8.99688904 8.99856391 9.99861735"></polygon>
                    <polygon id="Path" points="14.9976065 2.00345662 14.0019148 2.99896301 14.9976065 4.00069132 15.9995213 2.99896301"></polygon>
                    <polygon id="Path" points="11.0023935 5.99792603 10.0004787 6.99965434 11.0023935 8.00138265 11.9980852 6.99965434"></polygon>
                    <polygon id="Path" points="5.9990426 5.00241963 4.99712781 4.00069132 4.00143609 5.00241963 4.99712781 5.99792603"></polygon>
                    <polygon id="Path" points="1.99760651 2.99896301 2.9995213 4.00069132 4.00143609 2.99896301 2.9995213 1.9972347"></polygon>
                    <polygon id="Path" points="1.99760651 1.00172831 1.00191479 1.62277599e-13 -1.96324438e-13 1.00172831 1.00191479 1.9972347"></polygon>
                    <polygon id="Path" points="7.99664911 6.99965434 7.0009574 5.99792603 5.9990426 6.99965434 7.0009574 8.00138265"></polygon>
                </g>
            </g>
        </g>
    </g>
</svg>