<?xml version="1.0" encoding="utf-8"?>
<!-- Generator: Adobe Illustrator 16.0.0, SVG Export Plug-In . SVG Version: 6.00 Build 0)  -->
<!DOCTYPE svg PUBLIC "-//W3C//DTD SVG 1.1//EN" "http://www.w3.org/Graphics/SVG/1.1/DTD/svg11.dtd">
<svg version="1.1" id="Layer_1" xmlns="http://www.w3.org/2000/svg" xmlns:xlink="http://www.w3.org/1999/xlink" x="0px" y="0px"
	 width="112px" height="70px" viewBox="0 0 112 70" enable-background="new 0 0 112 70" xml:space="preserve">
<polygon fill="#c80404" points="13.885,39.621 9.729,42.021 5,39.291 5,33.833 9.729,31.103 14.197,33.685 19.455,33.685 
	19.455,30.946 9.729,25.33 0,30.946 0,42.179 9.729,47.795 19.455,42.179 19.455,39.621 "/>
<polygon fill="#c80404" points="35.53,33.684 40,31.103 44.471,33.684 49.729,33.684 49.729,30.946 40,25.33 30.273,30.946 
	30.273,33.684 "/>
<polygon fill="#c80404" points="44.157,39.621 40.001,42.021 35.844,39.621 30.272,39.621 30.272,42.179 40.001,47.795 
	49.728,42.179 49.728,39.621 "/>
<polygon fill="#c80404" points="65.803,33.684 70.272,31.103 74.743,33.684 80.001,33.684 80.001,30.946 70.272,25.33 
	60.546,30.946 60.546,33.684 "/>
<polygon fill="#c80404" points="74.43,39.621 70.273,42.021 66.116,39.621 60.545,39.621 60.545,42.179 70.273,47.795 80,42.179 
	80,39.621 "/>
<polygon fill="#c80404" points="100.546,25.33 90.817,30.946 90.817,33.684 96.075,33.684 100.546,31.103 105.273,33.833 
	105.273,39.291 100.546,42.021 96.39,39.621 90.817,39.621 90.817,42.179 100.546,47.795 110.273,42.179 110.273,30.946 "/>
<line fill="none" stroke="#FFFFFF" stroke-width="2" stroke-miterlimit="10" x1="13.218" y1="36.563" x2="36.968" y2="36.563"/>
<line fill="none" stroke="#FFFFFF" stroke-width="2" stroke-miterlimit="10" x1="73.306" y1="36.563" x2="97.056" y2="36.563"/>
<line fill="none" stroke="#FFFFFF" stroke-width="2" stroke-miterlimit="10" x1="43.262" y1="36.563" x2="67.012" y2="36.563"/>
</svg>
