<?xml version="1.0" encoding="utf-8"?>
<!-- Generator: Adobe Illustrator 16.0.0, SVG Export Plug-In . SVG Version: 6.00 Build 0)  -->
<!DOCTYPE svg PUBLIC "-//W3C//DTD SVG 1.1//EN" "http://www.w3.org/Graphics/SVG/1.1/DTD/svg11.dtd">
<svg version="1.1" id="Layer_1" xmlns="http://www.w3.org/2000/svg" xmlns:xlink="http://www.w3.org/1999/xlink" x="0px" y="0px"
	 width="125px" height="76px" viewBox="0 0 125 76" enable-background="new 0 0 125 76" xml:space="preserve">
<polyline fill="none" stroke="#FFFFFF" stroke-width="7" stroke-linejoin="round" stroke-miterlimit="10" points="9.357,67.088 
	9.357,30.038 41.794,30.038 41.794,67.088 "/>
<polyline fill="none" stroke="#FFFFFF" stroke-width="7" stroke-linejoin="round" stroke-miterlimit="10" points="78.016,67.088 
	78.016,20.016 112.628,20.016 112.628,67.088 "/>
<polyline fill="none" stroke="#FFFFFF" stroke-width="7" stroke-linejoin="round" stroke-miterlimit="10" points="41.617,67.088 
	41.617,7.078 78.015,7.078 78.015,67.088 "/>
<line fill="none" stroke="#FFFFFF" stroke-width="7" stroke-linejoin="round" stroke-miterlimit="10" x1="123.886" y1="71.952" x2="-0.114" y2="71.952"/>
<rect x="17.574" y="43.391" fill="#FFFFFF" width="6.312" height="7.316"/>
<rect x="97.064" y="29.634" fill="#FFFFFF" width="6.312" height="7.317"/>
<rect x="97.064" y="55.005" fill="#FFFFFF" width="6.312" height="7.316"/>
<rect x="88.009" y="42.305" fill="#FFFFFF" width="6.313" height="7.316"/>
<rect x="26.576" y="55.005" fill="#FFFFFF" width="6.313" height="7.316"/>
<rect x="51.098" y="16.123" fill="#FFFFFF" width="6.312" height="7.318"/>
<rect x="62.25" y="29.634" fill="#FFFFFF" width="6.313" height="7.317"/>
<rect x="62.25" y="16.123" fill="#FFFFFF" width="6.313" height="7.318"/>
<rect x="51.098" y="42.305" fill="#FFFFFF" width="6.312" height="7.316"/>
<rect x="51.098" y="55.005" fill="#FFFFFF" width="6.312" height="7.316"/>
<polyline fill="none" stroke="#c80404" stroke-width="5" stroke-miterlimit="10" points="12.577,22.335 5.746,15.747 12.577,9.16 
	"/>
<polyline fill="none" stroke="#c80404" stroke-width="5" stroke-miterlimit="10" points="27.855,22.335 34.687,15.747 27.855,9.16 
	"/>
<line fill="none" stroke="#FFFFFF" stroke-width="3" stroke-miterlimit="10" x1="21.532" y1="6.261" x2="18.338" y2="25.054"/>
<line fill="none" stroke="#FFFFFF" stroke-width="7" stroke-linejoin="round" stroke-miterlimit="10" x1="59.905" y1="9.926" x2="59.905" y2="0"/>
</svg>
