<?xml version="1.0" encoding="utf-8"?>
<!-- Generator: Adobe Illustrator 26.3.1, SVG Export Plug-In . SVG Version: 6.00 Build 0)  -->
<svg version="1.1" id="Layer_1" xmlns="http://www.w3.org/2000/svg" xmlns:xlink="http://www.w3.org/1999/xlink" x="0px" y="0px"
	 viewBox="0 0 100 50" style="enable-background:new 0 0 100 50;" xml:space="preserve">
<style type="text/css">
	.st0{fill:#FFFFFF;}
	.st1{fill:#c80404;}
	.st2{fill:#c80404;}
	.st3{fill:#c80404;}
	.st4{fill:#c80404;}
</style>
<path class="st0" d="M16.3,46.8h-13V16.1h1.2v-3.2H1.6c-0.9,0-1.6,0.7-1.6,1.6v33.9C0,49.3,0.7,50,1.6,50h16.3
	c0.9,0,1.6-0.7,1.6-1.6v-7.2h-3.2V46.8z"/>
<path class="st0" d="M98.4,10.1H69.9v3.2h26.9v33.5h-44v-5.6h-3.2v7.2c0,0.9,0.7,1.6,1.6,1.6h47.2c0.9,0,1.6-0.7,1.6-1.6V11.7
	C100,10.8,99.3,10.1,98.4,10.1z"/>
<path class="st0" d="M66,0H8.1C7.2,0,6.5,0.7,6.5,1.6v5.9v5.4v3.2v21.4c0,0.9,0.7,1.6,1.6,1.6h8.1h3.2h15.9v7.7h-9V50h21.2v-3.2h-9
	v-7.7h10.9h3.2H66c0.9,0,1.6-0.7,1.6-1.6V13.3v-3.2V7.6V1.7C67.6,0.7,66.9,0,66,0z M64.4,7.5V10v3.2v22.6H52.8h-3.2H19.5h-3.2H9.7
	V16.1v-3.2V7.5V3.2h54.6v4.3H64.4z"/>
<rect x="74.8" y="23" class="st1" width="17.7" height="2.3"/>
<rect x="74.8" y="31.7" class="st2" width="17.7" height="2.3"/>
<polygon class="st3" points="31.7,23.8 27,19 31.7,14.2 29.7,12.3 23.1,19 29.7,25.7 "/>
<polygon class="st4" points="49.6,17.6 44.4,12.3 42.4,14.2 47.1,19 42.4,23.8 44.4,25.7 49.6,20.4 51,19 "/>
<rect x="28.5" y="18.1" transform="matrix(0.1592 -0.9872 0.9872 0.1592 12.1979 52.2463)" class="st0" width="16.6" height="1.8"/>
</svg>
