<?xml version="1.0" encoding="utf-8"?>
<!-- Generator: Adobe Illustrator 16.0.0, SVG Export Plug-In . SVG Version: 6.00 Build 0)  -->
<!DOCTYPE svg PUBLIC "-//W3C//DTD SVG 1.1//EN" "http://www.w3.org/Graphics/SVG/1.1/DTD/svg11.dtd">
<svg version="1.1" id="Layer_1" xmlns="http://www.w3.org/2000/svg" xmlns:xlink="http://www.w3.org/1999/xlink" x="0px" y="0px"
	 width="60px" height="78px" viewBox="0 0 60 78" enable-background="new 0 0 60 78" xml:space="preserve">
<path fill="#FFFFFF" d="M26.006,50.336l-9.728-5.615V33.487l9.728-5.616l9.728,5.616v11.234L26.006,50.336z M21.278,41.833
	l4.728,2.729l4.728-2.729v-5.459l-4.728-2.729l-4.728,2.729V41.833z"/>
<line fill="none" stroke="#FFFFFF" stroke-width="5" stroke-linejoin="round" stroke-miterlimit="10" x1="3.129" y1="28.155" x2="3.129" y2="52.418"/>
<line fill="none" stroke="#FFFFFF" stroke-width="5" stroke-linejoin="round" stroke-miterlimit="10" x1="49.572" y1="28.155" x2="49.572" y2="52.418"/>
<line fill="none" stroke="#FFFFFF" stroke-width="5" stroke-linejoin="round" stroke-miterlimit="10" x1="41.144" y1="30.417" x2="58" y2="30.417"/>
<polyline fill="none" stroke="#c80404" stroke-width="5" stroke-miterlimit="10" points="13.593,22.696 26.005,16.588 
	38.417,22.696 "/>
<polyline fill="none" stroke="#c80404" stroke-width="5" stroke-miterlimit="10" points="8.924,13.073 26.006,4.667 43.087,13.073 
	"/>
<polyline fill="none" stroke="#c80404" stroke-width="5" stroke-miterlimit="10" points="13.593,56.641 26.005,62.748 
	38.417,56.641 "/>
<polyline fill="none" stroke="#c80404" stroke-width="5" stroke-miterlimit="10" points="8.924,66.263 26.006,74.669 43.087,66.263 
	"/>
</svg>
